<svg xmlns="http://www.w3.org/2000/svg" viewBox="0 0 220 220" role="img" aria-label="Ratu semut Namlah game art">
  <defs>
    <linearGradient id="body" x1="0" x2="1" y1="0" y2="1">
      <stop offset="0" stop-color="#fff3c9"/>
      <stop offset="0.56" stop-color="#f4bd42"/>
      <stop offset="1" stop-color="#c57a23"/>
    </linearGradient>
    <filter id="shadow" x="-20%" y="-20%" width="140%" height="140%">
      <feDropShadow dx="0" dy="7" stdDeviation="0" flood-color="#102017" flood-opacity=".18"/>
    </filter>
  </defs>
  <circle cx="110" cy="110" r="104" fill="#fff3c9"/>
  <path d="M52 177c32 24 84 28 122 0" fill="none" stroke="#102017" stroke-width="12" stroke-linecap="round" opacity=".16"/>
  <g filter="url(#shadow)">
    <path d="M64 77c-18-34-34-50-57-58" fill="none" stroke="#102017" stroke-width="9" stroke-linecap="round"/>
    <path d="M156 77c18-34 34-50 57-58" fill="none" stroke="#102017" stroke-width="9" stroke-linecap="round"/>
    <path d="M51 132c-20 5-34 16-43 35" fill="none" stroke="#102017" stroke-width="8" stroke-linecap="round"/>
    <path d="M169 132c20 5 34 16 43 35" fill="none" stroke="#102017" stroke-width="8" stroke-linecap="round"/>
    <path d="M63 164c-18 12-26 25-21 42" fill="none" stroke="#102017" stroke-width="8" stroke-linecap="round"/>
    <path d="M157 164c18 12 26 25 21 42" fill="none" stroke="#102017" stroke-width="8" stroke-linecap="round"/>
    <circle cx="110" cy="123" r="64" fill="url(#body)" stroke="#102017" stroke-width="7"/>
    <path d="M73 71h74l16 42c-34-13-72-13-106 0z" fill="#31a866" stroke="#102017" stroke-width="7" stroke-linejoin="round"/>
    <path d="M70 69h80l-22-35H92z" fill="#f4bd42" stroke="#102017" stroke-width="7" stroke-linejoin="round"/>
    <circle cx="110" cy="48" r="10" fill="#fff3c9" stroke="#102017" stroke-width="5"/>
    <circle cx="84" cy="112" r="11" fill="#102017"/>
    <circle cx="136" cy="112" r="11" fill="#102017"/>
    <circle cx="88" cy="108" r="4" fill="#fff3c9"/>
    <circle cx="140" cy="108" r="4" fill="#fff3c9"/>
    <path d="M88 145c16 18 28 18 44 0" fill="none" stroke="#102017" stroke-width="8" stroke-linecap="round"/>
    <path d="M110 88v72" fill="none" stroke="#102017" stroke-width="4" stroke-linecap="round" opacity=".18"/>
  </g>
</svg>
