<svg xmlns="http://www.w3.org/2000/svg" viewBox="0 0 220 220" role="img" aria-label="Ratu semut Namlah">
  <defs>
    <linearGradient id="body" x1="0" x2="1" y1="0" y2="1">
      <stop offset="0" stop-color="#fff6d8"/>
      <stop offset="1" stop-color="#f0b848"/>
    </linearGradient>
  </defs>
  <circle cx="110" cy="110" r="106" fill="#fffdf7"/>
  <path d="M72 76c-18-34-33-50-56-58" fill="none" stroke="#142018" stroke-width="9" stroke-linecap="round"/>
  <path d="M148 76c18-34 33-50 56-58" fill="none" stroke="#142018" stroke-width="9" stroke-linecap="round"/>
  <circle cx="110" cy="118" r="63" fill="url(#body)" stroke="#142018" stroke-width="7"/>
  <circle cx="86" cy="108" r="10" fill="#142018"/>
  <circle cx="134" cy="108" r="10" fill="#142018"/>
  <path d="M88 140c16 18 28 18 44 0" fill="none" stroke="#142018" stroke-width="8" stroke-linecap="round"/>
  <path d="M68 66h84l-20-30H88z" fill="#1f7a4d" stroke="#142018" stroke-width="7" stroke-linejoin="round"/>
  <circle cx="110" cy="52" r="9" fill="#f0b848" stroke="#142018" stroke-width="5"/>
  <path d="M54 128c-17 5-29 15-37 32" fill="none" stroke="#142018" stroke-width="8" stroke-linecap="round"/>
  <path d="M166 128c17 5 29 15 37 32" fill="none" stroke="#142018" stroke-width="8" stroke-linecap="round"/>
  <path d="M67 157c-16 11-22 23-18 38" fill="none" stroke="#142018" stroke-width="8" stroke-linecap="round"/>
  <path d="M153 157c16 11 22 23 18 38" fill="none" stroke="#142018" stroke-width="8" stroke-linecap="round"/>
</svg>
